{
  "asset": {
    "generator": "Khronos glTF Blender I/O v1.5.17",
    "version": "2.0"
  },
  "scene": 0,
  "scenes": [
    {
      "name": "Scene",
      "nodes": [
        0,
        1,
        2,
        3,
        4
      ]
    }
  ],
  "nodes": [
    {
      "name": "Light",
      "rotation": [
        0.16907575726509094,
        0.7558803558349609,
        -0.27217137813568115,
        0.570947527885437
      ],
      "translation": [
        4.6892852783203125,
        6.105380535125732,
        -0.0008685588836669922
      ]
    },
    {
      "name": "Camera",
      "rotation": [
        0.49882569909095764,
        0.49912506341934204,
        -0.4967289865016937,
        0.505279541015625
      ],
      "translation": [
        3.5983481407165527,
        1.699958086013794,
        -1.6848095655441284
      ]
    },
    {
      "mesh": 0,
      "name": "Plane",
      "rotation": [
        0.501336395740509,
        -0.5013363361358643,
        -0.498660147190094,
        0.4986601769924164
      ],
      "scale": [
        0.20000000298023224,
        -0.5799999237060547,
        1.1599998474121094
      ],
      "translation": [
        0.007051408290863037,
        1.1305482387542725,
        0.48937341570854187
      ]
    },
    {
      "mesh": 1,
      "name": "Plane.001",
      "rotation": [
        0.501336395740509,
        -0.5013363361358643,
        -0.498660147190094,
        0.4986601769924164
      ],
      "scale": [
        0.8999999761581421,
        1,
        0.019999999552965164
      ],
      "translation": [
        0.007051408290863037,
        0.03054821491241455,
        0.48937341570854187
      ]
    },
    {
      "mesh": 2,
      "name": "Text",
      "rotation": [
        0.7069569826126099,
        0,
        0,
        0.707256555557251
      ],
      "translation": [
        -0.9737407565116882,
        1.0085707902908325,
        0.49742722511291504
      ]
    }
  ],
  "materials": [
    {
      "doubleSided": true,
      "name": "Material.001",
      "pbrMetallicRoughness": {
        "metallicFactor": 0,
        "roughnessFactor": 0.5
      }
    },
    {
      "doubleSided": true,
      "name": "Material.002",
      "pbrMetallicRoughness": {
        "baseColorFactor": [
          0,
          0,
          0,
          1
        ],
        "metallicFactor": 0,
        "roughnessFactor": 0.5
      }
    },
    {
      "doubleSided": true,
      "name": "Material.004",
      "pbrMetallicRoughness": {
        "baseColorFactor": [
          0.1930733621120453,
          0.1930733621120453,
          0.1930733621120453,
          1
        ],
        "metallicFactor": 0,
        "roughnessFactor": 0.5
      }
    }
  ],
  "meshes": [
    {
      "name": "Plane",
      "primitives": [
        {
          "attributes": {
            "POSITION": 0,
            "NORMAL": 1,
            "TEXCOORD_0": 2
          },
          "indices": 3,
          "material": 0
        }
      ]
    },
    {
      "name": "Plane.001",
      "primitives": [
        {
          "attributes": {
            "POSITION": 4,
            "NORMAL": 5,
            "TEXCOORD_0": 6
          },
          "indices": 3,
          "material": 1
        }
      ]
    },
    {
      "name": "Text",
      "primitives": [
        {
          "attributes": {
            "POSITION": 7,
            "NORMAL": 8,
            "TEXCOORD_0": 9
          },
          "indices": 10,
          "material": 2
        }
      ]
    }
  ],
  "accessors": [
    {
      "bufferView": 0,
      "componentType": 5126,
      "count": 4,
      "max": [
        1,
        0,
        1
      ],
      "min": [
        -1,
        0,
        -1
      ],
      "type": "VEC3"
    },
    {
      "bufferView": 1,
      "componentType": 5126,
      "count": 4,
      "type": "VEC3"
    },
    {
      "bufferView": 2,
      "componentType": 5126,
      "count": 4,
      "type": "VEC2"
    },
    {
      "bufferView": 3,
      "componentType": 5123,
      "count": 6,
      "type": "SCALAR"
    },
    {
      "bufferView": 4,
      "componentType": 5126,
      "count": 4,
      "max": [
        1,
        0,
        1
      ],
      "min": [
        -1,
        0,
        -1
      ],
      "type": "VEC3"
    },
    {
      "bufferView": 5,
      "componentType": 5126,
      "count": 4,
      "type": "VEC3"
    },
    {
      "bufferView": 6,
      "componentType": 5126,
      "count": 4,
      "type": "VEC2"
    },
    {
      "bufferView": 7,
      "componentType": 5126,
      "count": 1305,
      "max": [
        1.1628000736236572,
        0,
        0.03450000286102295
      ],
      "min": [
        0.030300002545118332,
        0,
        -0.10410000383853912
      ],
      "type": "VEC3"
    },
    {
      "bufferView": 8,
      "componentType": 5126,
      "count": 1305,
      "type": "VEC3"
    },
    {
      "bufferView": 9,
      "componentType": 5126,
      "count": 1305,
      "type": "VEC2"
    },
    {
      "bufferView": 10,
      "componentType": 5123,
      "count": 2910,
      "type": "SCALAR"
    }
  ],
  "bufferViews": [
    {
      "buffer": 0,
      "byteLength": 48,
      "byteOffset": 0
    },
    {
      "buffer": 0,
      "byteLength": 48,
      "byteOffset": 48
    },
    {
      "buffer": 0,
      "byteLength": 32,
      "byteOffset": 96
    },
    {
      "buffer": 0,
      "byteLength": 12,
      "byteOffset": 128
    },
    {
      "buffer": 0,
      "byteLength": 48,
      "byteOffset": 140
    },
    {
      "buffer": 0,
      "byteLength": 48,
      "byteOffset": 188
    },
    {
      "buffer": 0,
      "byteLength": 32,
      "byteOffset": 236
    },
    {
      "buffer": 0,
      "byteLength": 15660,
      "byteOffset": 268
    },
    {
      "buffer": 0,
      "byteLength": 15660,
      "byteOffset": 15928
    },
    {
      "buffer": 0,
      "byteLength": 10440,
      "byteOffset": 31588
    },
    {
      "buffer": 0,
      "byteLength": 5820,
      "byteOffset": 42028
    }
  ],
  "buffers": [
    {
      "uri": "sign_data.bin",
      "byteLength": 47848
    }
  ]
}