{
  "asset": {
    "generator": "Khronos glTF Blender I/O v1.5.17",
    "version": "2.0"
  },
  "scene": 0,
  "scenes": [
    {
      "name": "Scene",
      "nodes": [
        0,
        1,
        2,
        3,
        4,
        5
      ]
    }
  ],
  "nodes": [
    {
      "name": "Light",
      "rotation": [
        0.16907575726509094,
        0.7558803558349609,
        -0.27217137813568115,
        0.570947527885437
      ],
      "translation": [
        4.6892852783203125,
        6.105380535125732,
        -0.0008685588836669922
      ]
    },
    {
      "name": "Camera",
      "rotation": [
        0.49882569909095764,
        0.49912506341934204,
        -0.4967289865016937,
        0.505279541015625
      ],
      "translation": [
        3.4783482551574707,
        1.699958086013794,
        0.015190273523330688
      ]
    },
    {
      "mesh": 0,
      "name": "Plane",
      "rotation": [
        0,
        0,
        0.7071068286895752,
        0.7071068286895752
      ],
      "scale": [
        0.20000000298023224,
        -0.5799999237060547,
        1.1599998474121094
      ],
      "translation": [
        0,
        2,
        0
      ]
    },
    {
      "mesh": 1,
      "name": "Plane.001",
      "rotation": [
        0,
        0,
        -0.7071068286895752,
        0.7071068286895752
      ],
      "scale": [
        0.8999999761581421,
        1,
        0.019999999552965164
      ],
      "translation": [
        0,
        0.8999999761581421,
        0
      ]
    },
    {
      "mesh": 2,
      "name": "Location",
      "rotation": [
        0.5,
        0.5000000596046448,
        -0.5,
        0.5000001192092896
      ],
      "translation": [
        0.004999999888241291,
        2.020339250564575,
        0.9745427966117859
      ]
    },
    {
      "mesh": 3,
      "name": "Text",
      "rotation": [
        0.49973830580711365,
        0.500261664390564,
        -0.5000498294830322,
        0.4999500513076782
      ],
      "translation": [
        0.003303471952676773,
        1.87802255153656,
        0.9807885885238647
      ]
    }
  ],
  "materials": [
    {
      "doubleSided": true,
      "name": "Material.001",
      "pbrMetallicRoughness": {
        "metallicFactor": 0,
        "roughnessFactor": 0.5
      }
    },
    {
      "doubleSided": true,
      "name": "Material.002",
      "pbrMetallicRoughness": {
        "baseColorFactor": [
          0,
          0,
          0,
          1
        ],
        "metallicFactor": 0,
        "roughnessFactor": 0.5
      }
    },
    {
      "doubleSided": true,
      "name": "Material.003",
      "pbrMetallicRoughness": {
        "baseColorFactor": [
          0,
          0,
          0,
          1
        ],
        "metallicFactor": 0,
        "roughnessFactor": 0.5
      }
    },
    {
      "doubleSided": true,
      "name": "Material.004",
      "pbrMetallicRoughness": {
        "baseColorFactor": [
          0.1930733621120453,
          0.1930733621120453,
          0.1930733621120453,
          1
        ],
        "metallicFactor": 0,
        "roughnessFactor": 0.5
      }
    }
  ],
  "meshes": [
    {
      "name": "Plane",
      "primitives": [
        {
          "attributes": {
            "POSITION": 0,
            "NORMAL": 1,
            "TEXCOORD_0": 2
          },
          "indices": 3,
          "material": 0
        }
      ]
    },
    {
      "name": "Plane.001",
      "primitives": [
        {
          "attributes": {
            "POSITION": 4,
            "NORMAL": 5,
            "TEXCOORD_0": 6
          },
          "indices": 3,
          "material": 1
        }
      ]
    },
    {
      "name": "Main Building",
      "primitives": [
        {
          "attributes": {
            "POSITION": 7,
            "NORMAL": 8,
            "TEXCOORD_0": 9
          },
          "indices": 10,
          "material": 2
        }
      ]
    },
    {
      "name": "Text",
      "primitives": [
        {
          "attributes": {
            "POSITION": 11,
            "NORMAL": 12,
            "TEXCOORD_0": 13
          },
          "indices": 14,
          "material": 3
        }
      ]
    }
  ],
  "accessors": [
    {
      "bufferView": 0,
      "componentType": 5126,
      "count": 4,
      "max": [
        1,
        0,
        1
      ],
      "min": [
        -1,
        0,
        -1
      ],
      "type": "VEC3"
    },
    {
      "bufferView": 1,
      "componentType": 5126,
      "count": 4,
      "type": "VEC3"
    },
    {
      "bufferView": 2,
      "componentType": 5126,
      "count": 4,
      "type": "VEC2"
    },
    {
      "bufferView": 3,
      "componentType": 5123,
      "count": 6,
      "type": "SCALAR"
    },
    {
      "bufferView": 4,
      "componentType": 5126,
      "count": 4,
      "max": [
        1,
        0,
        1
      ],
      "min": [
        -1,
        0,
        -1
      ],
      "type": "VEC3"
    },
    {
      "bufferView": 5,
      "componentType": 5126,
      "count": 4,
      "type": "VEC3"
    },
    {
      "bufferView": 6,
      "componentType": 5126,
      "count": 4,
      "type": "VEC2"
    },
    {
      "bufferView": 7,
      "componentType": 5126,
      "count": 1272,
      "max": [
        0.9105202555656433,
        0,
        0.039100006222724915
      ],
      "min": [
        0.012410003691911697,
        0,
        -0.11594002693891525
      ],
      "type": "VEC3"
    },
    {
      "bufferView": 8,
      "componentType": 5126,
      "count": 1272,
      "type": "VEC3"
    },
    {
      "bufferView": 9,
      "componentType": 5126,
      "count": 1272,
      "type": "VEC2"
    },
    {
      "bufferView": 10,
      "componentType": 5123,
      "count": 2823,
      "type": "SCALAR"
    },
    {
      "bufferView": 11,
      "componentType": 5126,
      "count": 1305,
      "max": [
        1.1628000736236572,
        0,
        0.03450000286102295
      ],
      "min": [
        0.030300002545118332,
        0,
        -0.10410000383853912
      ],
      "type": "VEC3"
    },
    {
      "bufferView": 12,
      "componentType": 5126,
      "count": 1305,
      "type": "VEC3"
    },
    {
      "bufferView": 13,
      "componentType": 5126,
      "count": 1305,
      "type": "VEC2"
    },
    {
      "bufferView": 14,
      "componentType": 5123,
      "count": 2910,
      "type": "SCALAR"
    }
  ],
  "bufferViews": [
    {
      "buffer": 0,
      "byteLength": 48,
      "byteOffset": 0
    },
    {
      "buffer": 0,
      "byteLength": 48,
      "byteOffset": 48
    },
    {
      "buffer": 0,
      "byteLength": 32,
      "byteOffset": 96
    },
    {
      "buffer": 0,
      "byteLength": 12,
      "byteOffset": 128
    },
    {
      "buffer": 0,
      "byteLength": 48,
      "byteOffset": 140
    },
    {
      "buffer": 0,
      "byteLength": 48,
      "byteOffset": 188
    },
    {
      "buffer": 0,
      "byteLength": 32,
      "byteOffset": 236
    },
    {
      "buffer": 0,
      "byteLength": 15264,
      "byteOffset": 268
    },
    {
      "buffer": 0,
      "byteLength": 15264,
      "byteOffset": 15532
    },
    {
      "buffer": 0,
      "byteLength": 10176,
      "byteOffset": 30796
    },
    {
      "buffer": 0,
      "byteLength": 5648,
      "byteOffset": 40972
    },
    {
      "buffer": 0,
      "byteLength": 15660,
      "byteOffset": 46620
    },
    {
      "buffer": 0,
      "byteLength": 15660,
      "byteOffset": 62280
    },
    {
      "buffer": 0,
      "byteLength": 10440,
      "byteOffset": 77940
    },
    {
      "buffer": 0,
      "byteLength": 5820,
      "byteOffset": 88380
    }
  ],
  "buffers": [
    {
      "uri": "sign_data.bin",
      "byteLength": 94200
    }
  ]
}